HIERARCHY
ROOT Hips
{
	OFFSET 0.000000 0.000000 0.000000
	CHANNELS 6 Xposition Yposition Zposition Zrotation Yrotation Xrotation 
	JOINT LHipJoint
	{
		OFFSET 0.000000 0.000000 0.000000
		CHANNELS 3 Zrotation Yrotation Xrotation
		JOINT LeftUpLeg
		{
			OFFSET 1.363060 -1.794630 0.839290
			CHANNELS 3 Zrotation Yrotation Xrotation
			JOINT LeftLeg
			{
				OFFSET 2.448110 -6.726130 0.000000
				CHANNELS 3 Zrotation Yrotation Xrotation
				JOINT LeftFoot
				{
					OFFSET 2.562200 -7.039590 0.000000
					CHANNELS 3 Zrotation Yrotation Xrotation
					JOINT LeftToeBase
					{
						OFFSET 0.157640 -0.433110 2.322550
						CHANNELS 3 Zrotation Yrotation Xrotation
						End Site
						{
							OFFSET 0.000000 0.000000 0.000000
						}
					}
				}
			}
		}
	}
	JOINT RHipJoint
	{
		OFFSET 0.000000 0.000000 0.000000
		CHANNELS 3 Zrotation Yrotation Xrotation
		JOINT RightUpLeg
		{
			OFFSET -1.305520 -1.794630 0.839290
			CHANNELS 3 Zrotation Yrotation Xrotation
			JOINT RightLeg
			{
				OFFSET -2.542530 -6.985550 0.000000
				CHANNELS 3 Zrotation Yrotation Xrotation
				JOINT RightFoot
				{
					OFFSET -2.568260 -7.056230 0.000000
					CHANNELS 3 Zrotation Yrotation Xrotation
					JOINT RightToeBase
					{
						OFFSET -0.164730 -0.452590 2.363150
						CHANNELS 3 Zrotation Yrotation Xrotation
						End Site
						{
							OFFSET 0.000000 0.000000 0.000000
						}
					}
				}
			}
		}
	}
	JOINT LowerBack
	{
		OFFSET 0.000000 0.000000 0.000000
		CHANNELS 3 Zrotation Yrotation Xrotation
		JOINT Spine
		{
			OFFSET 0.028270 2.035590 -0.193380
			CHANNELS 3 Zrotation Yrotation Xrotation
			JOINT Spine1
			{
				OFFSET 0.056720 2.048850 -0.042750
				CHANNELS 3 Zrotation Yrotation Xrotation
				JOINT Neck
				{
					OFFSET 0.000000 0.000000 0.000000
					CHANNELS 3 Zrotation Yrotation Xrotation
					JOINT Neck1
					{
						OFFSET -0.054170 1.746240 0.172020
						CHANNELS 3 Zrotation Yrotation Xrotation
						JOINT Head
						{
							OFFSET 0.104070 1.761360 -0.123970
							CHANNELS 3 Zrotation Yrotation Xrotation
							End Site
							{
								OFFSET 0.000000 0.000000 0.000000
							}
						}
					}
				}
				JOINT LeftShoulder
				{
					OFFSET 0.000000 0.000000 0.000000
					CHANNELS 3 Zrotation Yrotation Xrotation
					JOINT LeftArm
					{
						OFFSET 3.362410 1.200890 -0.311210
						CHANNELS 3 Zrotation Yrotation Xrotation
						JOINT LeftForeArm
						{
							OFFSET 4.983000 -0.000000 -0.000000
							CHANNELS 3 Zrotation Yrotation Xrotation
							JOINT LeftHand
							{
								OFFSET 3.483560 -0.000000 -0.000000
								CHANNELS 3 Zrotation Yrotation Xrotation
								JOINT LeftFingerBase
								{
									OFFSET 0.000000 0.000000 0.000000
									CHANNELS 3 Zrotation Yrotation Xrotation
									JOINT LeftHandIndex1
									{
										OFFSET 0.715260 -0.000000 -0.000000
										CHANNELS 3 Zrotation Yrotation Xrotation
										End Site
										{
											OFFSET 0.000000 0.000000 0.000000
										}
									}
								}
								JOINT LThumb
								{
									OFFSET 0.000000 0.000000 0.000000
									CHANNELS 3 Zrotation Yrotation Xrotation
									End Site
									{
										OFFSET 0.000000 0.000000 0.000000
									}
								}
							}
						}
					}
				}
				JOINT RightShoulder
				{
					OFFSET 0.000000 0.000000 0.000000
					CHANNELS 3 Zrotation Yrotation Xrotation
					JOINT RightArm
					{
						OFFSET -3.136600 1.374050 -0.404650
						CHANNELS 3 Zrotation Yrotation Xrotation
						JOINT RightForeArm
						{
							OFFSET -5.241900 -0.000000 -0.000000
							CHANNELS 3 Zrotation Yrotation Xrotation
							JOINT RightHand
							{
								OFFSET -3.444170 -0.000000 -0.000000
								CHANNELS 3 Zrotation Yrotation Xrotation
								JOINT RightFingerBase
								{
									OFFSET 0.000000 0.000000 0.000000
									CHANNELS 3 Zrotation Yrotation Xrotation
									JOINT RightHandIndex1
									{
										OFFSET -0.622530 -0.000000 -0.000000
										CHANNELS 3 Zrotation Yrotation Xrotation
										End Site
										{
											OFFSET 0.000000 0.000000 0.000000
										}
									}
								}
								JOINT RThumb
								{
									OFFSET 0.000000 0.000000 0.000000
									CHANNELS 3 Zrotation Yrotation Xrotation
									End Site
									{
										OFFSET 0.000000 0.000000 0.000000
									}
								}
							}
						}
					}
				}
			}
		}
	}
}
MOTION
Frames: 11
Frame Time: 0.008333
1.129660 17.962754 7.496708 2.010191 -0.960836 0.380072 -0.826583 5.950332 5.264838 -23.710673 -9.630285 -6.285271 0.961331 6.749424 27.019603 0.632152 -1.211040 -5.506376 0.014890 -0.779566 -2.142432 0.507412 -4.360402 3.167936 15.833420 11.654663 -31.985466 -4.073740 -11.749471 38.095427 2.519631 -10.267759 3.925893 -0.377768 3.943521 -10.918351 -3.500925 -1.097143 3.374432 3.494840 -1.564018 6.976741 3.337729 -0.775213 -6.504571 -4.787305 -3.616090 -15.578100 2.983321 -4.084812 14.174796 -0.202865 -1.783442 7.647432 -6.997133 2.555107 -1.276085 -75.940337 0.160274 28.866996 18.307550 -29.188946 -4.910989 -0.143890 -0.595200 -2.371603 26.279010 25.871268 12.509438 -7.125000 0.000000 0.000000 -4.076435 59.030642 -1.399113 10.996474 -2.216558 -2.716372 74.618805 -1.202496 6.790974 -11.109497 23.138580 -2.742466 0.849387 -0.273489 5.077316 -14.281170 20.090214 -5.354038 7.125000 0.000000 0.000000 8.529023 -9.281913 7.115413
1.129068 17.966501 7.585047 2.011753 -0.932091 0.452615 -0.859984 5.973421 5.316883 -23.662377 -9.582131 -5.859515 0.895974 6.632383 26.692054 0.631259 -1.210117 -5.510708 0.009271 -0.621698 -1.708295 0.594247 -4.340095 3.118027 15.755919 11.663866 -32.010929 -3.641299 -11.294426 36.310378 2.688364 -10.835277 4.498934 -0.424903 4.183562 -11.593652 -3.520450 -1.122424 3.376689 3.554811 -1.596507 6.975829 3.362813 -0.794379 -6.496461 -4.849260 -3.599017 -15.360357 3.059394 -4.083076 13.839804 -0.171596 -1.789326 7.521297 -6.997404 2.533070 -1.274536 -75.847203 -0.255649 29.000816 18.221991 -29.079844 -4.867475 -0.145186 -0.595828 -2.411588 26.338561 25.885125 12.547913 -7.125000 0.000000 0.000000 -4.012904 59.060127 -1.380140 10.998539 -2.227469 -2.721585 74.616200 -1.090363 6.637304 -11.079591 23.072887 -2.700607 0.884670 -0.313574 5.507591 -15.281055 21.114496 -6.008515 7.125000 0.000000 0.000000 7.907468 -8.101739 6.780440
1.124389 17.965964 7.680719 2.068257 -1.021091 0.484295 -0.889859 5.988519 5.367413 -23.673608 -9.276424 -5.586867 0.869666 6.569656 26.537197 0.654651 -1.258029 -5.659924 0.012921 -0.729487 -2.004813 0.690545 -4.327349 3.073175 15.607610 11.810887 -31.835728 -3.205699 -10.780737 34.453965 2.833710 -11.283884 4.788006 -0.321783 3.621802 -10.017592 -3.647730 -1.111222 3.292347 3.595227 -1.585318 7.001840 3.434877 -0.790954 -6.433388 -4.936602 -3.644904 -15.343141 3.130622 -4.134848 13.917663 -0.142741 -1.809765 7.542741 -6.999259 2.529439 -1.275667 -75.731932 -0.535029 29.047586 18.308790 -29.194898 -4.910872 -0.149513 -0.598941 -2.019635 26.522063 26.287829 12.820192 -7.125000 0.000000 0.000000 -3.974308 59.533918 -1.411622 11.003197 -2.224441 -2.713754 74.644221 -1.020692 6.398839 -10.939884 22.846811 -2.640922 0.899385 -0.277874 5.395819 -15.849543 20.329665 -6.000939 7.125000 0.000000 0.000000 7.495110 -8.866931 6.309244
1.117628 17.965248 7.776516 2.039228 -1.109338 0.551821 -0.920816 6.004859 5.416498 -23.575198 -8.957075 -5.387443 0.842682 6.515328 26.388190 0.690146 -1.347048 -5.798137 0.015810 -0.810651 -2.228010 0.795011 -4.314559 3.026534 15.520950 12.022777 -31.630458 -2.777541 -10.243736 32.579146 2.972162 -11.708459 5.100241 -0.212405 2.899072 -8.002209 -3.709626 -1.116426 3.199360 3.670357 -1.589814 7.023557 3.489795 -0.796951 -6.372907 -5.012118 -3.676167 -15.529362 3.207134 -4.146211 14.190494 -0.110341 -1.803372 7.650805 -7.003789 2.537929 -1.276403 -75.615094 -0.793475 29.074950 18.413758 -29.336159 -4.963113 -0.154942 -0.604928 -1.715984 26.837312 26.852842 13.239852 -7.125000 0.000000 0.000000 -3.855602 60.215403 -1.430038 11.001453 -2.212697 -2.700327 74.670037 -0.956333 6.225472 -10.839558 22.685599 -2.597701 0.907777 -0.260867 5.307983 -16.134290 19.950644 -6.002416 7.125000 0.000000 0.000000 7.288781 -9.234270 6.075392
1.108623 17.964393 7.872348 1.914762 -1.195083 0.659596 -0.953021 6.022685 5.464007 -23.354610 -8.626282 -5.266883 0.814396 6.469521 26.243209 0.738690 -1.480865 -5.922120 0.017727 -0.858580 -2.359699 0.908384 -4.301614 2.977843 15.503520 12.304501 -31.394759 -2.357665 -9.681769 30.684970 3.103316 -12.108126 5.442138 -0.098236 2.009578 -5.532583 -3.697635 -1.140306 3.098035 3.784180 -1.612287 7.040140 3.525074 -0.813698 -6.316074 -5.074186 -3.690352 -15.937875 3.289564 -4.112096 14.673237 -0.073981 -1.767078 7.852636 -7.011254 2.559574 -1.276663 -75.496838 -1.030692 29.082073 18.536387 -29.503242 -5.023910 -0.161549 -0.614060 -1.516180 27.296605 27.591959 13.819296 -7.125000 0.000000 0.000000 -3.647888 61.120432 -1.433277 10.992587 -2.191505 -2.680892 74.692980 -0.897250 6.125350 -10.784370 22.598446 -2.572953 0.909464 -0.265620 5.254328 -16.111150 20.046389 -6.023307 7.125000 0.000000 0.000000 7.307490 -9.133718 6.106133
1.103413 17.963665 7.964891 1.834723 -1.138791 0.832265 -0.986352 6.033362 5.495362 -23.197611 -8.562712 -5.097863 0.775017 6.408082 26.051853 0.759808 -1.554054 -5.922527 0.018690 -0.882659 -2.425882 1.018596 -4.288834 2.920787 15.364313 12.572078 -31.233582 -1.964757 -9.114887 28.794435 3.259451 -12.608575 5.862185 -0.072722 1.729293 -4.758362 -3.711121 -1.202393 3.119007 3.897770 -1.692382 6.883466 3.581229 -0.853916 -6.411438 -5.017231 -3.668491 -15.924251 3.230772 -4.089969 14.709984 -0.094987 -1.757941 7.857947 -7.017760 2.556271 -1.270463 -75.394397 -1.160957 29.111433 18.530183 -29.506151 -5.022584 -0.173895 -0.617074 -1.606459 28.109249 27.542803 14.269698 -7.125000 0.000000 0.000000 -2.643669 61.282124 -1.047040 10.986293 -2.196328 -2.686078 74.670886 -1.049743 6.247680 -10.834921 22.684476 -2.579997 0.915155 -0.319594 5.472093 -16.070516 21.299695 -6.377516 7.125000 0.000000 0.000000 7.399082 -7.812588 6.379882
1.101364 17.961406 8.058782 1.874824 -1.039287 0.994636 -1.019251 6.040929 5.523906 -23.195626 -8.556329 -4.864889 0.739391 6.342162 25.868720 0.756603 -1.543920 -5.926014 0.020774 -0.929771 -2.555487 1.119217 -4.274466 2.867816 15.105018 12.700821 -31.099709 -1.575686 -8.544882 26.898979 3.369357 -12.975737 6.315951 -0.079999 1.795823 -4.942515 -3.765688 -1.269546 3.104573 3.936045 -1.780441 6.742818 3.623983 -0.899056 -6.471119 -4.996297 -3.652827 -15.767989 3.218174 -4.089937 14.596806 -0.100106 -1.761759 7.800156 -7.019484 2.544358 -1.265157 -75.299576 -1.322013 29.164573 18.510204 -29.487406 -5.013973 -0.183116 -0.618127 -1.678285 28.700737 27.421628 14.559164 -7.125000 0.000000 0.000000 -1.874451 61.307974 -0.745067 10.989221 -2.205854 -2.693260 74.656406 -1.162776 6.291519 -10.834657 22.690837 -2.572990 0.913815 -0.357370 5.597305 -15.844382 22.123778 -6.527040 7.125000 0.000000 0.000000 7.588317 -6.967072 6.672790
1.103007 17.957266 8.154482 2.059988 -0.893705 1.141250 -1.051564 6.045030 5.549788 -23.380509 -8.607095 -4.555895 0.708898 6.271508 25.697903 0.724917 -1.434621 -5.939250 0.024278 -1.006259 -2.765978 1.208239 -4.258143 2.820255 14.704462 12.660128 -30.995686 -1.190009 -7.971287 24.997316 3.421411 -13.174698 6.807255 -0.123168 2.257857 -6.219009 -3.869360 -1.341059 3.040839 3.882046 -1.875470 6.630189 3.649306 -0.949092 -6.479714 -5.025260 -3.646501 -15.457365 3.269011 -4.116399 14.321491 -0.082984 -1.780137 7.674550 -7.015396 2.523100 -1.261260 -75.213327 -1.525973 29.245778 18.479579 -29.450068 -4.999441 -0.188229 -0.617074 -1.713466 29.004138 27.250332 14.657666 -7.125000 0.000000 0.000000 -1.431721 61.203323 -0.565185 11.003323 -2.219886 -2.701699 74.653432 -1.217224 6.228419 -10.767014 22.591197 -2.547229 0.903668 -0.372916 5.595980 -15.391791 22.365921 -6.409631 7.125000 0.000000 0.000000 7.893674 -6.763391 6.977420
1.098986 17.956327 8.253876 2.250555 -0.790997 1.234174 -1.081449 6.056191 5.581913 -23.548369 -8.609987 -4.221030 0.675960 6.195623 25.511956 0.674530 -1.294462 -5.820165 0.022890 -0.976422 -2.683874 1.300302 -4.253967 2.784045 14.333295 12.660813 -30.776332 -0.837071 -7.384802 23.146650 3.482902 -13.367021 7.078856 -0.195565 2.816556 -7.770326 -4.052988 -1.402995 2.928149 3.863588 -1.962684 6.614089 3.737941 -0.993132 -6.413865 -5.112049 -3.649582 -15.418139 3.306222 -4.108852 14.319972 -0.057502 -1.778451 7.670501 -7.013895 2.517075 -1.259736 -75.159143 -1.721351 29.317517 18.559029 -29.546355 -5.041010 -0.186072 -0.612455 -1.790632 28.949218 26.949615 14.484133 -7.125000 0.000000 0.000000 -1.377072 60.862245 -0.532498 11.013469 -2.219960 -2.698316 74.619161 -1.178776 6.102586 -10.646323 22.410270 -2.513572 0.887806 -0.346958 5.436893 -14.912365 21.613795 -6.010155 7.125000 0.000000 0.000000 8.167077 -7.605246 7.085562
1.092910 17.955938 8.352935 2.357112 -0.717900 1.313053 -1.111181 6.073295 5.618655 -23.614523 -8.592406 -3.899333 0.638925 6.119304 25.311243 0.650901 -1.242825 -5.725662 0.028516 -1.073149 -2.950192 1.395203 -4.257120 2.749946 14.044958 12.763679 -30.509657 -0.507117 -6.797260 21.349899 3.558474 -13.574856 7.208131 -0.272545 3.342091 -9.234048 -4.179263 -1.457589 2.827749 3.869043 -2.037613 6.619979 3.807552 -1.030942 -6.344207 -5.098059 -3.632347 -15.395635 3.247702 -4.084735 14.293448 -0.072496 -1.772972 7.659892 -7.012607 2.508658 -1.258096 -75.097772 -1.905640 29.354337 18.656218 -29.661156 -5.092430 -0.179737 -0.603781 -1.848773 28.626996 26.420517 14.054775 -7.125000 0.000000 0.000000 -1.554047 60.205597 -0.571150 11.017331 -2.222672 -2.698189 74.597526 -1.147453 6.069236 -10.573479 22.300346 -2.495617 0.880069 -0.314941 5.276755 -14.761215 20.821451 -5.729264 7.125000 0.000000 0.000000 8.227538 -8.455231 7.004294
1.084563 17.956003 8.451198 2.349069 -0.681085 1.377781 -1.140928 6.097826 5.661095 -23.544102 -8.551414 -3.597897 0.596550 6.042873 25.091864 0.665331 -1.314252 -5.676690 0.044118 -1.351533 -3.716591 1.493680 -4.269115 2.717674 13.866422 13.001531 -30.189294 -0.205376 -6.209466 19.621697 3.652308 -13.804366 7.164260 -0.353065 3.813711 -10.553579 -4.220305 -1.503091 2.748531 3.903714 -2.096572 6.646879 3.845514 -1.060838 -6.276206 -4.941882 -3.586653 -15.370938 3.060410 -4.041232 14.207837 -0.143232 -1.764179 7.629218 -7.011369 2.495594 -1.256079 -75.023697 -2.075659 29.344599 18.767397 -29.788841 -5.152081 -0.168393 -0.589928 -1.877221 27.974606 25.593108 13.302920 -7.125000 0.000000 0.000000 -2.009999 59.142039 -0.693187 11.013024 -2.230249 -2.703569 74.595927 -1.134333 6.167255 -10.570488 22.294319 -2.499714 0.883893 -0.278502 5.129669 -15.058397 20.065729 -5.635324 7.125000 0.000000 0.000000 8.001710 -9.220308 6.683798
